<mxfile host="app.diagrams.net" modified="2022-10-06T01:08:57.567Z" agent="5.0 (Linux; Android 10; Redmi 8) AppleWebKit/537.36 (KHTML, like Gecko) Chrome/105.0.0.0 Mobile Safari/537.36" etag="X3ojUSycKWva8vLf8o3Z" version="20.4.0" type="github">
  <diagram id="ZGtMnPxMUecOSi_6Gap6" name="Halaman-1">
    <mxGraphModel dx="1183" dy="1986" grid="0" gridSize="10" guides="1" tooltips="1" connect="1" arrows="1" fold="1" page="0" pageScale="1" pageWidth="827" pageHeight="1169" math="0" shadow="0">
      <root>
        <mxCell id="0" />
        <mxCell id="1" parent="0" />
      </root>
    </mxGraphModel>
  </diagram>
</mxfile>
